<svg width="36" height="36" viewBox="0 0 36 36" fill="none" xmlns="http://www.w3.org/2000/svg">
<rect width="36" height="36" rx="8" fill="#FEE1DB"/>
<path d="M15.6125 12.266H12.5957L8.5 23.5342H11.2571L12.0563 21.0368H16.072L16.8712 23.5342H19.6283L15.6125 12.266ZM12.5957 19.0789L14.0342 14.5636L15.4727 19.0789H12.5957Z" fill="#F06143"/>
<path d="M24.0434 15.3028C23.544 15.3028 23.0045 15.3628 22.4052 15.5026C21.8058 15.6425 21.3263 15.8023 20.9867 15.9821V17.8601C21.8458 17.2807 22.7648 17.001 23.7238 17.001C24.6828 17.001 25.1623 17.4406 25.1623 18.3197L22.9646 18.5994C21.1065 18.8391 20.1875 19.7382 20.1875 21.2965C20.1875 22.0357 20.4073 22.6351 20.8668 23.0746C21.3063 23.5142 21.9257 23.734 22.7048 23.734C23.7637 23.734 24.5629 23.2744 25.1023 22.3754H25.1423V23.5342H27.4998V18.7192C27.4798 16.4416 26.341 15.3028 24.0434 15.3028ZM25.1423 20.2576C25.1423 20.7571 25.0024 21.1567 24.7027 21.4763C24.4031 21.796 24.0235 21.9558 23.5639 21.9558C23.2243 21.9558 22.9646 21.8559 22.7648 21.6761C22.565 21.4963 22.4651 21.2566 22.4651 20.9769C22.4651 20.3575 22.8647 19.9779 23.6838 19.878L25.1423 19.6982C25.1423 19.6982 25.1423 20.2576 25.1423 20.2576Z" fill="#F06143"/>
</svg>
