<svg width="48" height="48" viewBox="0 0 48 48" fill="none" xmlns="http://www.w3.org/2000/svg">
<rect width="48" height="48" rx="12" fill="#F06143"/>
<path d="M24 17.25C25.4484 17.25 26.625 16.0734 26.625 14.625C26.625 13.1766 25.4484 12 24 12C22.5516 12 21.375 13.1766 21.375 14.625C21.375 16.0734 22.5516 17.25 24 17.25Z" fill="white"/>
<path d="M32.2498 17.2875L32.2264 17.2922L32.2076 17.2969C32.1607 17.3109 32.1139 17.325 32.067 17.339C31.1951 17.5969 26.9623 18.7875 23.9764 18.7875C21.2061 18.7875 17.3529 17.7562 16.1201 17.4047C15.9982 17.3578 15.8717 17.3156 15.7451 17.2828C14.8545 17.0484 14.2451 17.9531 14.2451 18.7781C14.2451 19.5984 14.9811 19.9875 15.7217 20.2687V20.2828L20.1842 21.675C20.6389 21.8484 20.7607 22.0265 20.8217 22.1812C21.0139 22.6781 20.8592 23.6625 20.8076 24.0047L20.5357 26.114L19.0311 34.3781C19.0264 34.4015 19.0217 34.425 19.017 34.4484L19.0076 34.5094C18.8998 35.264 19.4529 36 20.5076 36C21.4264 36 21.8342 35.3672 22.0076 34.5047C22.0076 34.5047 23.3201 27.1172 23.9764 27.1172C24.6326 27.1172 25.9826 34.5047 25.9826 34.5047C26.1607 35.3672 26.5639 36 27.4826 36C28.5373 36 29.0951 35.264 28.9826 34.5047C28.9732 34.439 28.9592 34.3781 28.9451 34.3125L27.4217 26.1234L27.1498 24.014C26.9529 22.7859 27.1123 22.3781 27.1639 22.2844C27.1639 22.2844 27.1686 22.2797 27.1686 22.275C27.2201 22.1812 27.4498 21.9703 27.9889 21.7687L32.1748 20.3062C32.1982 20.3015 32.2264 20.2922 32.2498 20.2828C32.9998 20.0015 33.7498 19.6125 33.7498 18.7875C33.7498 17.9625 33.1404 17.0531 32.2498 17.2875Z" fill="white"/>
</svg>
