<svg width="25" height="24" viewBox="0 0 25 24" fill="none" xmlns="http://www.w3.org/2000/svg">
<g id="arrows-rotate-1">
<g id="merged">
<path d="M12.5021 3.75C8.09982 3.75 4.50245 7.1985 4.26466 11.541C4.24201 11.9546 3.88837 12.2715 3.47478 12.2489C3.06118 12.2262 2.74426 11.8726 2.76691 11.459C3.048 6.32551 7.29887 2.25 12.5021 2.25C16.1726 2.25 19.368 4.27791 21.0314 7.273L21.4198 5.49566C21.5082 5.09099 21.9079 4.83463 22.3126 4.92305C22.7173 5.01147 22.9736 5.4112 22.8852 5.81587L22.2635 8.66114C22.0495 9.64076 20.9869 10.1976 20.0597 9.81572L17.3669 8.70678C16.9839 8.54905 16.8013 8.1107 16.959 7.72769C17.1167 7.34469 17.5551 7.16206 17.9381 7.31979L19.7574 8.06903C18.3603 5.49586 15.6343 3.75 12.5021 3.75Z" fill="white"/>
<path d="M3.97228 16.726L3.58443 18.501C3.49601 18.9057 3.09628 19.162 2.69162 19.0736C2.28695 18.9852 2.03059 18.5855 2.11901 18.1808L2.74073 15.3355C2.9547 14.3559 4.01737 13.7991 4.94455 14.1809L7.63732 15.2899C8.02032 15.4476 8.20295 15.886 8.04522 16.269C7.88749 16.652 7.44913 16.8346 7.06613 16.6769L5.24449 15.9267C6.64094 18.5022 9.36815 20.25 12.5021 20.25C16.9044 20.25 20.5018 16.8015 20.7396 12.459C20.7622 12.0454 21.1159 11.7285 21.5295 11.7511C21.9431 11.7738 22.26 12.1274 22.2373 12.541C21.9562 17.6745 17.7054 21.75 12.5021 21.75C8.83123 21.75 5.63553 19.7217 3.97228 16.726Z" fill="white"/>
</g>
</g>
</svg>
