<svg width="48" height="48" viewBox="0 0 48 48" fill="none" xmlns="http://www.w3.org/2000/svg">
<path fill-rule="evenodd" clip-rule="evenodd" d="M10.0772 10.0763C11.5652 8.58835 14.3902 8.01868 18.4077 9.20028C18.6909 9.28358 18.9772 9.37499 19.2663 9.47444C17.4447 10.7673 15.66 12.2717 13.9663 13.9654C13.3114 14.6203 12.6858 15.2878 12.0906 15.9645C11.2699 16.8976 11.3611 18.3193 12.2942 19.14C13.2273 19.9606 14.649 19.8695 15.4696 18.9364C16.0013 18.3319 16.5611 17.7346 17.1482 17.1474C19.3716 14.9241 21.7256 13.1075 24.0425 11.7277C26.3594 13.1075 28.7135 14.9241 30.9368 17.1474C33.4598 19.6704 35.4589 22.3616 36.8905 24.976C36.9344 25.0731 36.9852 25.1672 37.0427 25.2576C37.8521 26.7758 38.4688 28.2649 38.884 29.6766C40.0656 33.694 39.4959 36.5191 38.0079 38.0071C36.5199 39.4951 33.6949 40.0647 29.6774 38.8831C29.3942 38.7998 29.1078 38.7084 28.8188 38.609C30.6403 37.3161 32.4251 35.8117 34.1188 34.118C34.7453 33.4915 35.3449 32.8536 35.9168 32.2069C36.7401 31.2761 36.6529 29.8542 35.7221 29.0309C34.7913 28.2077 33.3693 28.2949 32.546 29.2257C32.0352 29.8033 31.4985 30.3743 30.9368 30.936C28.7135 33.1593 26.3594 34.9759 24.0425 36.3557C21.7256 34.9759 19.3716 33.1593 17.1482 30.936C13.0662 26.854 10.3554 22.3313 9.2011 18.4068C8.0195 14.3894 8.58917 11.5643 10.0772 10.0763ZM19.6774 4.88313C21.1077 5.30381 22.5719 5.88254 24.0425 6.608C25.5132 5.88254 26.9774 5.30381 28.4077 4.88313C33.0916 3.50551 37.9916 3.69608 41.1899 6.89437C43.3786 9.08309 44.1593 12.1073 43.9945 15.2385C43.8476 18.0283 42.953 21.0477 41.4762 24.0416C42.2017 25.5123 42.7804 26.9765 43.2011 28.4068C44.5787 33.0907 44.3882 37.9908 41.1899 41.189C37.9916 44.3873 33.0916 44.5779 28.4077 43.2003C26.9774 42.7796 25.5132 42.2009 24.0425 41.4754C22.5719 42.2009 21.1077 42.7796 19.6774 43.2003C14.9935 44.5779 10.0935 44.3873 6.89519 41.189C4.708 39.0019 3.92681 35.9803 4.09026 32.8514C4.23609 30.0597 5.13097 27.0379 6.60887 24.0418C5.88338 22.5711 5.30465 21.1069 4.88396 19.6766C3.50634 14.9927 3.6969 10.0927 6.89519 6.89437C10.0935 3.69608 14.9935 3.50551 19.6774 4.88313ZM34.1188 13.9654C32.4251 12.2717 30.6404 10.7673 28.8188 9.47444C29.1078 9.37499 29.3942 9.28358 29.6774 9.20028C33.6949 8.01868 36.5199 8.58835 38.0079 10.0763C39.0342 11.1026 39.6206 12.7237 39.5007 15.002C39.4329 16.2901 39.1381 17.7297 38.6098 19.2655C37.317 17.4439 35.8125 15.6591 34.1188 13.9654ZM13.9663 34.118C15.66 35.8117 17.4447 37.3161 19.2663 38.609C18.9772 38.7084 18.6909 38.7998 18.4077 38.8831C14.3902 40.0647 11.5652 39.4951 10.0772 38.0071C9.05156 36.9815 8.46524 35.362 8.58413 33.0861C8.65148 31.7968 8.9463 30.3556 9.47525 28.8179C10.7681 30.6395 12.2726 32.4243 13.9663 34.118ZM28.5 24C28.5 26.4853 26.4853 28.5 24 28.5C21.5147 28.5 19.5 26.4853 19.5 24C19.5 21.5147 21.5147 19.5 24 19.5C26.4853 19.5 28.5 21.5147 28.5 24Z" fill="#2B2B2B"/>
</svg>
