<svg width="101" height="48" viewBox="0 0 101 48" fill="none" xmlns="http://www.w3.org/2000/svg">
<path fill-rule="evenodd" clip-rule="evenodd" d="M10.0772 10.0759C11.5652 8.58786 14.3902 8.01819 18.4077 9.19979C18.6909 9.28309 18.9772 9.3745 19.2663 9.47395C17.4447 10.7668 15.66 12.2712 13.9663 13.9649C13.3114 14.6199 12.6858 15.2873 12.0906 15.964C11.2699 16.8971 11.3611 18.3188 12.2942 19.1395C13.2273 19.9602 14.649 19.869 15.4696 18.9359C16.0013 18.3314 16.5611 17.7341 17.1482 17.1469C19.3716 14.9236 21.7256 13.107 24.0425 11.7272C26.3594 13.107 28.7135 14.9236 30.9368 17.1469C33.4598 19.6699 35.4589 22.3612 36.8905 24.9755C36.9344 25.0726 36.9852 25.1667 37.0427 25.2571C37.8521 26.7753 38.4688 28.2644 38.884 29.6761C40.0656 33.6935 39.4959 36.5186 38.0079 38.0066C36.5199 39.4946 33.6949 40.0643 29.6774 38.8826C29.3942 38.7993 29.1078 38.7079 28.8188 38.6085C30.6403 37.3156 32.4251 35.8112 34.1188 34.1175C34.7453 33.491 35.3449 32.8531 35.9168 32.2065C36.7401 31.2756 36.6529 29.8537 35.7221 29.0304C34.7913 28.2072 33.3693 28.2944 32.546 29.2252C32.0352 29.8028 31.4985 30.3738 30.9368 30.9355C28.7135 33.1588 26.3594 34.9754 24.0425 36.3552C21.7256 34.9754 19.3716 33.1588 17.1482 30.9355C13.0662 26.8535 10.3554 22.3308 9.2011 18.4063C8.0195 14.3889 8.58917 11.5639 10.0772 10.0759ZM19.6774 4.88265C21.1077 5.30332 22.5719 5.88205 24.0425 6.60751C25.5132 5.88205 26.9774 5.30332 28.4077 4.88265C33.0916 3.50502 37.9916 3.69559 41.1899 6.89388C43.3786 9.0826 44.1593 12.1068 43.9945 15.2381C43.8476 18.0278 42.953 21.0473 41.4762 24.0411C42.2017 25.5118 42.7804 26.976 43.2011 28.4063C44.5787 33.0903 44.3882 37.9903 41.1899 41.1886C37.9916 44.3869 33.0916 44.5774 28.4077 43.1998C26.9774 42.7791 25.5132 42.2004 24.0425 41.4749C22.5719 42.2004 21.1077 42.7791 19.6774 43.1998C14.9935 44.5774 10.0935 44.3869 6.89519 41.1886C4.708 39.0014 3.92681 35.9798 4.09026 32.8509C4.23609 30.0592 5.13097 27.0374 6.60887 24.0413C5.88338 22.5707 5.30465 21.1064 4.88396 19.6761C3.50634 14.9922 3.6969 10.0922 6.89519 6.89388C10.0935 3.69559 14.9935 3.50502 19.6774 4.88265ZM34.1188 13.9649C32.4251 12.2712 30.6404 10.7668 28.8188 9.47395C29.1078 9.3745 29.3942 9.28309 29.6774 9.19979C33.6949 8.01819 36.5199 8.58786 38.0079 10.0759C39.0342 11.1022 39.6206 12.7232 39.5007 15.0015C39.4329 16.2896 39.1381 17.7292 38.6098 19.265C37.317 17.4434 35.8125 15.6587 34.1188 13.9649ZM13.9663 34.1175C15.66 35.8112 17.4447 37.3156 19.2663 38.6085C18.9772 38.7079 18.6909 38.7993 18.4077 38.8826C14.3902 40.0643 11.5652 39.4946 10.0772 38.0066C9.05156 36.981 8.46524 35.3615 8.58413 33.0856C8.65148 31.7963 8.9463 30.3552 9.47525 28.8174C10.7681 30.639 12.2726 32.4238 13.9663 34.1175ZM28.5 23.9995C28.5 26.4848 26.4853 28.4995 24 28.4995C21.5147 28.4995 19.5 26.4848 19.5 23.9995C19.5 21.5142 21.5147 19.4995 24 19.4995C26.4853 19.4995 28.5 21.5142 28.5 23.9995Z" fill="#2B2B2B"/>
<path d="M53.2642 31V16.4545H56.3395V28.4645H62.5753V31H53.2642ZM69.484 31.2131C68.3808 31.2131 67.4267 30.9787 66.6218 30.5099C65.8216 30.0365 65.2037 29.3783 64.7681 28.5355C64.3325 27.688 64.1147 26.7055 64.1147 25.5881C64.1147 24.4612 64.3325 23.4763 64.7681 22.6335C65.2037 21.786 65.8216 21.1278 66.6218 20.6591C67.4267 20.1856 68.3808 19.9489 69.484 19.9489C70.5872 19.9489 71.5389 20.1856 72.3391 20.6591C73.1441 21.1278 73.7643 21.786 74.1999 22.6335C74.6355 23.4763 74.8533 24.4612 74.8533 25.5881C74.8533 26.7055 74.6355 27.688 74.1999 28.5355C73.7643 29.3783 73.1441 30.0365 72.3391 30.5099C71.5389 30.9787 70.5872 31.2131 69.484 31.2131ZM69.4982 28.8693C70.0001 28.8693 70.4192 28.7273 70.7553 28.4432C71.0915 28.1544 71.3448 27.7614 71.5153 27.2642C71.6905 26.767 71.7781 26.2012 71.7781 25.5668C71.7781 24.9323 71.6905 24.3665 71.5153 23.8693C71.3448 23.3722 71.0915 22.9792 70.7553 22.6903C70.4192 22.4015 70.0001 22.2571 69.4982 22.2571C68.9916 22.2571 68.5655 22.4015 68.2198 22.6903C67.8789 22.9792 67.6209 23.3722 67.4457 23.8693C67.2752 24.3665 67.19 24.9323 67.19 25.5668C67.19 26.2012 67.2752 26.767 67.4457 27.2642C67.6209 27.7614 67.8789 28.1544 68.2198 28.4432C68.5655 28.7273 68.9916 28.8693 69.4982 28.8693ZM81.7354 35.3182C80.7553 35.3182 79.9149 35.1832 79.2141 34.9134C78.5181 34.6482 77.9641 34.286 77.5522 33.8267C77.1403 33.3674 76.8728 32.8513 76.7496 32.2784L79.5479 31.902C79.6332 32.1198 79.7681 32.3234 79.9528 32.5128C80.1374 32.7022 80.3813 32.8537 80.6843 32.9673C80.9921 33.0857 81.3661 33.1449 81.8065 33.1449C82.4646 33.1449 83.0067 32.9839 83.4329 32.6619C83.8638 32.3447 84.0792 31.812 84.0792 31.0639V29.0682H83.9513C83.8188 29.3712 83.6199 29.6577 83.3548 29.9276C83.0896 30.1974 82.7487 30.4176 82.332 30.5881C81.9154 30.7585 81.4182 30.8438 80.8406 30.8438C80.0214 30.8438 79.2757 30.6544 78.6033 30.2756C77.9357 29.892 77.4031 29.3073 77.0053 28.5213C76.6123 27.7306 76.4158 26.7315 76.4158 25.5241C76.4158 24.2884 76.6171 23.2562 77.0195 22.4276C77.422 21.599 77.957 20.9787 78.6246 20.5668C79.297 20.1548 80.0333 19.9489 80.8335 19.9489C81.4442 19.9489 81.9556 20.053 82.3675 20.2614C82.7795 20.465 83.1109 20.7206 83.3619 21.0284C83.6175 21.3314 83.814 21.6297 83.9513 21.9233H84.065V20.0909H87.0692V31.1065C87.0692 32.0346 86.842 32.8111 86.3874 33.4361C85.9329 34.0611 85.3031 34.5298 84.4982 34.8423C83.698 35.1596 82.7771 35.3182 81.7354 35.3182ZM81.7994 28.571C82.2871 28.571 82.699 28.4503 83.0352 28.2088C83.3761 27.9626 83.6365 27.6122 83.8164 27.1577C84.0011 26.6984 84.0934 26.1491 84.0934 25.5099C84.0934 24.8707 84.0034 24.3168 83.8235 23.848C83.6436 23.3745 83.3832 23.0076 83.0423 22.7472C82.7013 22.4867 82.2871 22.3565 81.7994 22.3565C81.3022 22.3565 80.8832 22.4915 80.5423 22.7614C80.2013 23.0265 79.9433 23.3958 79.7681 23.8693C79.5929 24.3428 79.5053 24.8897 79.5053 25.5099C79.5053 26.1397 79.5929 26.6842 79.7681 27.1435C79.948 27.598 80.2061 27.9508 80.5423 28.2017C80.8832 28.4479 81.3022 28.571 81.7994 28.571ZM94.4059 31.2131C93.3027 31.2131 92.3486 30.9787 91.5437 30.5099C90.7435 30.0365 90.1256 29.3783 89.69 28.5355C89.2544 27.688 89.0366 26.7055 89.0366 25.5881C89.0366 24.4612 89.2544 23.4763 89.69 22.6335C90.1256 21.786 90.7435 21.1278 91.5437 20.6591C92.3486 20.1856 93.3027 19.9489 94.4059 19.9489C95.5091 19.9489 96.4608 20.1856 97.261 20.6591C98.0659 21.1278 98.6862 21.786 99.1218 22.6335C99.5574 23.4763 99.7752 24.4612 99.7752 25.5881C99.7752 26.7055 99.5574 27.688 99.1218 28.5355C98.6862 29.3783 98.0659 30.0365 97.261 30.5099C96.4608 30.9787 95.5091 31.2131 94.4059 31.2131ZM94.4201 28.8693C94.922 28.8693 95.341 28.7273 95.6772 28.4432C96.0134 28.1544 96.2667 27.7614 96.4371 27.2642C96.6123 26.767 96.6999 26.2012 96.6999 25.5668C96.6999 24.9323 96.6123 24.3665 96.4371 23.8693C96.2667 23.3722 96.0134 22.9792 95.6772 22.6903C95.341 22.4015 94.922 22.2571 94.4201 22.2571C93.9135 22.2571 93.4873 22.4015 93.1417 22.6903C92.8008 22.9792 92.5427 23.3722 92.3675 23.8693C92.1971 24.3665 92.1119 24.9323 92.1119 25.5668C92.1119 26.2012 92.1971 26.767 92.3675 27.2642C92.5427 27.7614 92.8008 28.1544 93.1417 28.4432C93.4873 28.7273 93.9135 28.8693 94.4201 28.8693Z" fill="#3D3D3D"/>
</svg>
