<svg width="36" height="36" viewBox="0 0 36 36" fill="none" xmlns="http://www.w3.org/2000/svg">
<rect width="36" height="36" rx="8" fill="#FEE1DB"/>
<path fill-rule="evenodd" clip-rule="evenodd" d="M24.1448 20.2667C24.1448 20.2667 26.2031 22.37 26.2031 24.4583C26.2031 25.8383 25.0823 26.9583 23.7031 26.9583C22.3231 26.9583 21.2031 25.8383 21.2031 24.4583C21.2031 22.37 23.2606 20.2667 23.2606 20.2667C23.5048 20.0225 23.9006 20.0225 24.1448 20.2667Z" fill="#F06143"/>
<path fill-rule="evenodd" clip-rule="evenodd" d="M23.381 18.7783L18.6669 23.4925C18.081 24.0783 17.286 24.4075 16.4577 24.4075C15.6285 24.4075 14.8335 24.0783 14.2477 23.4925L10.7127 19.9575C10.1269 19.3708 9.79688 18.5758 9.79688 17.7475C9.79688 16.9183 10.1269 16.1233 10.7127 15.5375L16.0152 10.235C16.2594 9.99082 16.6552 9.99082 16.8994 10.235L23.381 16.7158C23.9502 17.2858 23.9502 18.2092 23.381 18.7783ZM22.4969 17.895C22.5785 17.8133 22.5785 17.6817 22.4969 17.6L16.4577 11.5608L11.5969 16.4217C11.2452 16.7733 11.0469 17.25 11.0469 17.7475C11.0469 18.245 11.2452 18.7217 11.5969 19.0733L15.1319 22.6083C15.4835 22.96 15.9602 23.1575 16.4577 23.1575C16.9544 23.1575 17.4319 22.96 17.7835 22.6083L22.4969 17.895Z" fill="#F06143"/>
<path fill-rule="evenodd" clip-rule="evenodd" d="M17.9076 11.245C18.1518 11.4892 18.1518 11.885 17.9076 12.1292C17.6634 12.3725 17.2676 12.3725 17.0234 12.1292L15.0034 10.1083C14.7593 9.865 14.7593 9.46833 15.0034 9.225C15.2476 8.98083 15.6434 8.98083 15.8876 9.225L17.9076 11.245Z" fill="#F06143"/>
<path fill-rule="evenodd" clip-rule="evenodd" d="M10.4219 17.1225H23.1827C23.5277 17.1225 23.8077 17.4025 23.8077 17.7475C23.8077 18.1208 23.6652 18.4942 23.381 18.7783L18.6669 23.4925C18.081 24.0783 17.286 24.4075 16.4577 24.4075C15.6285 24.4075 14.8335 24.0783 14.2477 23.4925L10.7127 19.9575C10.1269 19.3708 9.79688 18.5758 9.79688 17.7475C9.79688 17.4025 10.0769 17.1225 10.4219 17.1225Z" fill="#F06143"/>
</svg>
