<svg width="20" height="20" viewBox="0 0 20 20" fill="none" xmlns="http://www.w3.org/2000/svg">
<g id="Delete">
<path id="Shape" d="M10 2.7C10.65 2.7 11.1885 3.17698 11.2847 3.8H8.71529C8.81149 3.17698 9.35004 2.7 10 2.7ZM10 1.3C8.5761 1.3 7.40964 2.40223 7.3073 3.8H2.5C2.1134 3.8 1.8 4.1134 1.8 4.5C1.8 4.8866 2.1134 5.2 2.5 5.2H3.37612L4.54922 15.3668C4.73553 16.9815 6.10272 18.2 7.72813 18.2H12.2719C13.8973 18.2 15.2645 16.9815 15.4508 15.3668L16.6239 5.2H17.5C17.8866 5.2 18.2 4.8866 18.2 4.5C18.2 4.1134 17.8866 3.8 17.5 3.8H12.6927C12.5904 2.40223 11.4239 1.3 10 1.3ZM7.72813 16.8C6.81384 16.8 6.04479 16.1146 5.93999 15.2063L4.78541 5.2H15.2146L14.06 15.2063C13.9552 16.1146 13.1862 16.8 12.2719 16.8H7.72813ZM9.2 8C9.2 7.6134 8.8866 7.3 8.5 7.3C8.1134 7.3 7.8 7.6134 7.8 8V14C7.8 14.3866 8.1134 14.7 8.5 14.7C8.8866 14.7 9.2 14.3866 9.2 14V8ZM12.2 8C12.2 7.6134 11.8866 7.3 11.5 7.3C11.1134 7.3 10.8 7.6134 10.8 8V14C10.8 14.3866 11.1134 14.7 11.5 14.7C11.8866 14.7 12.2 14.3866 12.2 14V8Z" fill="#2B2B2B" stroke="#2B2B2B" stroke-width="0.4" stroke-linecap="round"/>
</g>
</svg>
