<svg width="21" height="20" viewBox="0 0 21 20" fill="none" xmlns="http://www.w3.org/2000/svg">
<g id="Phonecall">
<path id="Vector" d="M6.83067 1.25H4.07051C2.6967 1.25 1.58301 2.36369 1.58301 3.7375V6.225C1.58301 13.094 7.15147 18.6625 14.0205 18.6625H16.508C17.8818 18.6625 18.9955 17.5488 18.9955 16.175V14.4562C18.9955 13.9851 18.7293 13.5544 18.308 13.3437L15.3032 11.8413C14.6262 11.5028 13.8064 11.8424 13.567 12.5605L13.1967 13.6715C12.9568 14.3912 12.2185 14.8196 11.4747 14.6708C8.49737 14.0754 6.17013 11.7481 5.57468 8.77085C5.4259 8.02698 5.85432 7.28873 6.574 7.04884L7.95286 6.58922C8.56941 6.3837 8.92379 5.73814 8.76617 5.10764L8.03728 2.1921C7.89886 1.63842 7.40138 1.25 6.83067 1.25Z" fill="#2B2B2B"/>
</g>
</svg>
