<svg width="40" height="40" viewBox="0 0 40 40" fill="none" xmlns="http://www.w3.org/2000/svg">
<path d="M33.9135 16.0119C33.6839 15.8583 33.4178 15.7681 33.1421 15.7505C32.8664 15.7329 32.5909 15.7886 32.3437 15.9118L26.6332 18.7659L21.3659 9.28343C21.2302 9.04018 21.032 8.83758 20.7918 8.69658C20.5516 8.55559 20.2781 8.48132 19.9996 8.48145C19.721 8.48157 19.4476 8.5561 19.2075 8.69731C18.9674 8.83852 18.7694 9.0413 18.634 9.28468L13.3666 18.7659L7.6562 15.9118C7.40887 15.7881 7.13314 15.7323 6.85718 15.75C6.58121 15.7677 6.31488 15.8583 6.08538 16.0126C5.85588 16.1669 5.67144 16.3793 5.55087 16.6282C5.43031 16.877 5.37794 17.1535 5.39912 17.4292L6.56495 32.572C6.58327 32.8075 6.68971 33.0273 6.86303 33.1878C7.03634 33.3482 7.26378 33.4374 7.49995 33.4375H32.4999C32.7361 33.4374 32.9636 33.3482 33.1369 33.1878C33.3102 33.0273 33.4166 32.8075 33.4349 32.572L34.6007 17.428C34.6211 17.1523 34.5682 16.8762 34.4476 16.6275C34.3269 16.3789 34.1427 16.1665 33.9135 16.0119Z" fill="#FFDE50"/>
<path d="M5 15.0063C6.03553 15.0063 6.875 14.1669 6.875 13.1313C6.875 12.0958 6.03553 11.2563 5 11.2563C3.96447 11.2563 3.125 12.0958 3.125 13.1313C3.125 14.1669 3.96447 15.0063 5 15.0063Z" fill="#F98824"/>
<path d="M35 15.0063C36.0355 15.0063 36.875 14.1669 36.875 13.1313C36.875 12.0958 36.0355 11.2563 35 11.2563C33.9645 11.2563 33.125 12.0958 33.125 13.1313C33.125 14.1669 33.9645 15.0063 35 15.0063Z" fill="#F98824"/>
<path d="M20 6.88135C21.0355 6.88135 21.875 6.04188 21.875 5.00635C21.875 3.97081 21.0355 3.13135 20 3.13135C18.9645 3.13135 18.125 3.97081 18.125 5.00635C18.125 6.04188 18.9645 6.88135 20 6.88135Z" fill="#F98824"/>
<path d="M10.625 30.625C11.3154 30.625 11.875 30.0654 11.875 29.375C11.875 28.6846 11.3154 28.125 10.625 28.125C9.93464 28.125 9.375 28.6846 9.375 29.375C9.375 30.0654 9.93464 30.625 10.625 30.625Z" fill="#F98824"/>
<path d="M14.375 30.625C15.0654 30.625 15.625 30.0654 15.625 29.375C15.625 28.6846 15.0654 28.125 14.375 28.125C13.6846 28.125 13.125 28.6846 13.125 29.375C13.125 30.0654 13.6846 30.625 14.375 30.625Z" fill="#F98824"/>
<path d="M18.125 30.625C18.8154 30.625 19.375 30.0654 19.375 29.375C19.375 28.6846 18.8154 28.125 18.125 28.125C17.4346 28.125 16.875 28.6846 16.875 29.375C16.875 30.0654 17.4346 30.625 18.125 30.625Z" fill="#F98824"/>
<path d="M21.875 30.625C22.5654 30.625 23.125 30.0654 23.125 29.375C23.125 28.6846 22.5654 28.125 21.875 28.125C21.1846 28.125 20.625 28.6846 20.625 29.375C20.625 30.0654 21.1846 30.625 21.875 30.625Z" fill="#F98824"/>
<path d="M25.625 30.625C26.3154 30.625 26.875 30.0654 26.875 29.375C26.875 28.6846 26.3154 28.125 25.625 28.125C24.9346 28.125 24.375 28.6846 24.375 29.375C24.375 30.0654 24.9346 30.625 25.625 30.625Z" fill="#F98824"/>
<path d="M29.375 30.625C30.0654 30.625 30.625 30.0654 30.625 29.375C30.625 28.6846 30.0654 28.125 29.375 28.125C28.6846 28.125 28.125 28.6846 28.125 29.375C28.125 30.0654 28.6846 30.625 29.375 30.625Z" fill="#F98824"/>
<path d="M33.75 31.5625H6.25C6.00138 31.5626 5.76296 31.6614 5.58716 31.8372C5.41136 32.013 5.31257 32.2514 5.3125 32.5V35C5.3132 35.5799 5.5439 36.1359 5.95398 36.546C6.36407 36.9561 6.92006 37.1868 7.5 37.1875H32.5C33.0799 37.1868 33.6359 36.9561 34.046 36.546C34.4561 36.1359 34.6868 35.5799 34.6875 35V32.5C34.6874 32.2514 34.5886 32.013 34.4128 31.8372C34.237 31.6614 33.9986 31.5626 33.75 31.5625Z" fill="#FCA62F"/>
</svg>
