<svg width="240" height="160" viewBox="0 0 240 160" fill="none" xmlns="http://www.w3.org/2000/svg">
<g clip-path="url(#clip0_1130_13693)">
<path d="M240 0H0V160H240V0Z" fill="white"/>
<path d="M121.475 148.4C160.126 148.4 191.459 117.067 191.459 78.4156C191.459 39.7645 160.126 8.43164 121.475 8.43164C82.8241 8.43164 51.4912 39.7645 51.4912 78.4156C51.4912 117.067 82.8241 148.4 121.475 148.4Z" fill="#DEE9E7"/>
<path d="M59.8365 147.068L44.4611 53.7427C43.928 50.4464 46.5321 47.4813 49.8697 47.5847L103.052 49.2311C105.589 49.3095 107.716 51.1712 108.129 53.6749L123.676 145.389C124.212 148.627 121.713 151.57 118.432 151.568L65.0774 151.533C62.472 151.531 60.2521 149.64 59.8365 147.068Z" fill="#2E2C41"/>
<path d="M62.7359 144.375L47.3605 51.0494C46.8274 47.7531 49.4315 44.7879 52.7692 44.8913L105.952 46.5377C108.488 46.6161 110.615 48.4779 111.029 50.9815L126.576 142.696C127.111 145.934 124.612 148.877 121.331 148.875L67.9768 148.839C65.3714 148.838 63.1519 146.947 62.7359 144.375Z" fill="#2E2C41"/>
<path d="M62.7359 144.375L47.3605 51.0494C46.8274 47.7531 49.4315 44.7879 52.7691 44.8913" stroke="white" stroke-width="0.6536" stroke-miterlimit="10" stroke-linecap="round" stroke-linejoin="round"/>
<path d="M67.9792 146.023L121.332 146.058C122.339 146.059 122.957 145.507 123.237 145.178C123.516 144.848 123.96 144.148 123.796 143.156L108.25 51.4414C108.062 50.3083 107.133 49.4529 105.989 49.3608L52.6825 47.7073C51.6595 47.676 51.0201 48.2245 50.7302 48.5547C50.4406 48.8846 49.9782 49.5893 50.1414 50.6005L65.5164 143.926C65.7008 145.064 66.6297 145.922 67.7769 146.015C67.7763 146.015 67.911 146.023 67.9792 146.023Z" fill="white"/>
<path d="M100.441 96.9106C106.908 89.2856 105.198 77.207 96.6208 69.9323C88.0438 62.6576 75.848 62.9417 69.3808 70.5667C62.9136 78.1917 64.624 90.2703 73.2011 97.545C81.7782 104.82 93.974 104.536 100.441 96.9106Z" fill="#DEE9E7"/>
<path d="M93.2957 91.6591H80.5904C80.1286 91.6591 79.696 91.3464 79.5389 90.8994L74.3529 76.1496C73.9264 74.9359 72.7523 74.0879 71.4989 74.0879H69.5088L69.6806 75.9221" stroke="#2E2C41" stroke-width="1.1153" stroke-miterlimit="10" stroke-linecap="round" stroke-linejoin="round"/>
<path d="M74.9629 77.8857H94.9632C95.4551 77.8857 95.8579 78.3497 95.7799 78.8259L94.2934 87.8765C94.2387 88.2086 93.961 88.4409 93.6179 88.4409H78.6736" stroke="#2E2C41" stroke-width="1.1153" stroke-miterlimit="10" stroke-linecap="round" stroke-linejoin="round"/>
<path d="M94.0948 93.7425C94.5281 93.2884 94.4752 92.5347 93.9766 92.0589C93.4781 91.5832 92.7227 91.5656 92.2894 92.0197C91.8561 92.4737 91.909 93.2275 92.4076 93.7032C92.9061 94.1789 93.6615 94.1965 94.0948 93.7425Z" stroke="#2E2C41" stroke-width="1.1153" stroke-miterlimit="10" stroke-linecap="round" stroke-linejoin="round"/>
<path d="M83.6993 93.7425C84.1326 93.2884 84.0797 92.5347 83.5811 92.0589C83.0826 91.5832 82.3272 91.5656 81.8939 92.0197C81.4606 92.4737 81.5135 93.2275 82.0121 93.7032C82.5106 94.1789 83.266 94.1965 83.6993 93.7425Z" stroke="#2E2C41" stroke-width="1.1153" stroke-miterlimit="10" stroke-linecap="round" stroke-linejoin="round"/>
<path d="M79.585 77.8369L83.0912 88.4084" stroke="#2E2C41" stroke-width="1.1153" stroke-miterlimit="10" stroke-linecap="round" stroke-linejoin="round"/>
<path d="M85.6016 77.8848L86.7209 88.36" stroke="#2E2C41" stroke-width="1.1153" stroke-miterlimit="10" stroke-linecap="round" stroke-linejoin="round"/>
<path d="M91.5134 77.8369L89.9873 88.4084" stroke="#2E2C41" stroke-width="1.1153" stroke-miterlimit="10" stroke-linecap="round" stroke-linejoin="round"/>
<path d="M94.9764 83.1396H76.874" stroke="#2E2C41" stroke-width="1.1153" stroke-miterlimit="10" stroke-linecap="round" stroke-linejoin="round"/>
<path d="M131.059 84.221C141.688 78.2802 143.834 61.8896 135.854 47.6116C127.873 33.3336 112.788 26.5749 102.159 32.5157C91.5303 38.4565 89.3836 54.8471 97.3642 69.1251C105.345 83.4031 120.431 90.1618 131.059 84.221Z" fill="#93B5AF"/>
<path d="M137.029 81.472C147.658 75.5312 149.804 59.1406 141.824 44.8626C133.843 30.5846 118.757 23.8259 108.129 29.7667C97.5 35.7075 95.3533 52.0981 103.334 66.3761C111.314 80.6541 126.4 87.4128 137.029 81.472Z" fill="white" stroke="#93B5AF" stroke-width="7.1171" stroke-miterlimit="10" stroke-linecap="round" stroke-linejoin="round"/>
<path d="M126.691 67.5776L127.566 71.3331L125.29 71.4007L124.423 67.6784C121.657 67.5578 118.771 66.5629 116.976 65.0963L117.436 61.6727C119.109 62.9738 121.416 63.8845 123.58 64.057L122.019 57.3504C118.727 56.5363 115.144 55.4269 114.058 50.7658C113.262 47.3453 114.621 44.3002 118.833 43.6691L117.95 39.88L120.226 39.8125L121.093 43.5347C123.178 43.608 125.431 44.2842 127.203 45.4135L126.854 48.8339C125.141 47.8381 123.454 47.3139 121.936 47.1562L123.514 53.9299C126.805 54.744 130.436 55.8183 131.522 60.4794C132.318 63.8995 130.924 66.912 126.691 67.5776ZM121.074 53.2928L119.684 47.3239C117.799 47.7511 117.248 48.9827 117.591 50.4583C117.967 52.0679 119.332 52.7703 121.074 53.2928ZM128.039 60.8861C127.657 59.2429 126.256 58.5079 124.458 57.9872L125.84 63.9226C127.78 63.4935 128.375 62.328 128.039 60.8861Z" fill="#527A75"/>
<path d="M77.6592 50.0146C82.1815 29.5314 96.2804 12.5068 121.818 18.2258C147.355 23.9448 147.267 56.1567 147.267 56.1567C147.267 56.1567 138.883 23.9829 114.118 27.2002C96.1178 29.5388 96.6794 50.1474 96.6794 50.1474H106.655L86.97 71.4284L67.418 50.1474L77.6592 50.0146Z" fill="#527A75"/>
<path d="M177.662 62.3752C180.525 62.3752 182.845 60.0548 182.845 57.1925C182.845 54.3301 180.525 52.0098 177.662 52.0098C174.8 52.0098 172.479 54.3301 172.479 57.1925C172.479 60.0548 174.8 62.3752 177.662 62.3752Z" fill="#2E2C41"/>
<path d="M184.914 57.8076C184.914 57.8076 189.04 65.0313 183.997 75.5273C181.05 81.6601 179.035 82.1046 183.282 86.9065C187.53 91.7084 194.776 101.949 184.371 111.077C173.966 120.206 159.758 96.0953 159.758 96.0953L166.637 70.5945L174.68 58.3625L184.914 57.8076Z" fill="#2E2C41"/>
<path d="M179.421 93.459C183.479 93.459 186.769 90.1696 186.769 86.1119C186.769 82.0541 183.479 78.7646 179.421 78.7646C175.364 78.7646 172.074 82.0541 172.074 86.1119C172.074 90.1696 175.364 93.459 179.421 93.459Z" fill="#2E2C41"/>
<path d="M158.698 78.004C162.756 78.004 166.045 74.7145 166.045 70.6568C166.045 66.599 162.756 63.3096 158.698 63.3096C154.64 63.3096 151.351 66.599 151.351 70.6568C151.351 74.7145 154.64 78.004 158.698 78.004Z" fill="#2E2C41"/>
<path d="M151.439 87.4942C155.497 87.4942 158.786 84.2048 158.786 80.147C158.786 76.0893 155.497 72.7998 151.439 72.7998C147.381 72.7998 144.092 76.0893 144.092 80.147C144.092 84.2048 147.381 87.4942 151.439 87.4942Z" fill="#2E2C41"/>
<path d="M146.51 96.9962C150.568 96.9962 153.857 93.7067 153.857 89.649C153.857 85.5912 150.568 82.3018 146.51 82.3018C142.453 82.3018 139.163 85.5912 139.163 89.649C139.163 93.7067 142.453 96.9962 146.51 96.9962Z" fill="#2E2C41"/>
<path d="M155.555 97.0469C159.613 97.0469 162.902 93.7575 162.902 89.6997C162.902 85.642 159.613 82.3525 155.555 82.3525C151.497 82.3525 148.208 85.642 148.208 89.6997C148.208 93.7575 151.497 97.0469 155.555 97.0469Z" fill="#2E2C41"/>
<path d="M160.451 82.2637C160.451 82.2637 154.549 90.1213 153.287 91.1408C152.026 92.16 163.964 97.065 166.74 97.5645C169.516 98.0637 171.324 96.5959 171.324 96.5959C171.324 96.5959 171.483 83.4679 174.273 80.3117C177.063 77.1555 160.451 82.2637 160.451 82.2637Z" fill="#FDB096"/>
<path d="M158.127 86.2805C163.138 88.6866 169.363 84.6031 173.09 79.9404C176.816 75.2776 185.101 56.8383 173.703 52.3609C162.306 47.8834 157.291 60.1052 155.293 65.718C153.295 71.3308 151.342 83.0226 158.127 86.2805Z" fill="#FDB096"/>
<path d="M158.127 86.2806C160.607 87.4713 163.669 87.0854 166.581 85.8262" stroke="#2E2C41" stroke-width="1.0012" stroke-miterlimit="10" stroke-linecap="round" stroke-linejoin="round"/>
<path d="M159.726 67.6032C159.938 67.0158 159.716 66.3979 159.231 66.2232C158.746 66.0485 158.182 66.3831 157.97 66.9705C157.759 67.558 157.98 68.1758 158.465 68.3505C158.95 68.5252 159.514 68.1906 159.726 67.6032Z" fill="#2E2C41"/>
<path d="M161.038 72.6465L160.263 73.7498C159.923 74.2343 160.115 74.9089 160.66 75.1415L160.917 75.2513" stroke="#2E2C41" stroke-width="1.0012" stroke-miterlimit="10" stroke-linecap="round" stroke-linejoin="round"/>
<path d="M158.565 78.2119C158.565 78.2119 158.593 78.5354 158.71 78.9402C158.879 79.5297 159.231 80.3012 159.953 80.4871C160.488 80.627 161.253 80.2743 161.805 79.9486C162.211 79.7143 162.503 79.4929 162.503 79.4929L158.565 78.2119Z" fill="#2E2C41"/>
<path d="M162.504 79.4929C162.504 79.4929 161.184 79.8574 160.091 79.5098C158.998 79.162 158.565 78.2119 158.565 78.2119L162.504 79.4929Z" fill="white"/>
<path d="M167.104 67.5537C167.104 67.5537 169.83 67.8734 170.897 69.9918L167.104 67.5537Z" fill="#2E2C41"/>
<path d="M161.48 65.3226C161.48 65.3226 159.949 63.7703 157.444 64.3571L161.48 65.3226Z" fill="#2E2C41"/>
<path d="M167.53 72.0202C167.741 71.4328 167.52 70.8149 167.035 70.6402C166.55 70.4655 165.986 70.8001 165.774 71.3875C165.562 71.975 165.784 72.5928 166.269 72.7675C166.753 72.9422 167.318 72.6076 167.53 72.0202Z" fill="#2E2C41"/>
<path d="M173.974 74.726C173.721 73.4211 175.272 69.9215 171.693 67.6275C165.185 63.455 166.316 59.1011 166.316 59.1011C166.316 59.1011 161.912 57.038 156.445 62.599C156.445 62.599 158.965 45.6537 169.606 50.4803C170.463 50.8691 174.749 49.2508 180.646 52.8822C191.349 59.4726 182.602 73.5187 177.262 75.4819C176.389 75.8025 173.974 74.726 173.974 74.726Z" fill="#2E2C41"/>
<path d="M174.791 75.0723C174.791 75.0723 178.729 75.279 177.754 78.3305C176.78 81.382 171.091 82.1385 171.091 82.1385L174.791 75.0723Z" fill="#FDB096"/>
<path d="M175.155 77.1602C175.155 77.1602 177.132 78.2133 174.059 79.8027L175.155 77.1602Z" fill="#2E2C41"/>
<path d="M195.532 114.385C195.532 114.385 192.935 142.449 192.351 151.528H179.746L183.443 112.184L193.606 111.29L195.532 114.385Z" fill="#F06143"/>
<path d="M186.04 99.3211L179.952 149.774C179.832 150.359 179.712 150.943 179.574 151.528H132.629L134.916 145.372L137.616 140.471L141.003 131.151L142.861 108.297L140.245 91.7742L140.991 91.5031L144.907 90.4993L155.637 89.3643L171.148 91.187L181.638 96.9131L186.04 99.3211Z" fill="#FDB096"/>
<path d="M195.532 114.402C191.457 112.356 187.294 115.187 187.294 115.187C188.137 121.945 186.855 126.248 185.221 130.737C182.951 136.927 182.031 137.275 179.746 151.528H132.457C137.375 135.329 137.376 113.752 137.376 113.752C134.333 107.304 128.64 102.709 128.64 102.709C130.067 95.2285 139.601 91.4986 140.083 91.4298C140.1 91.4298 140.117 91.4298 140.117 91.4298L144.89 90.4653C144.89 90.4653 153.744 89.3524 153.761 89.3693C153.761 89.3693 150.915 97.3975 159.519 98.8877C169.6 100.634 173.455 92.8141 173.678 92.3671C173.696 92.3501 181.655 96.8967 181.655 96.8967C181.655 96.8967 186.796 99.648 187.862 100.181C190.184 101.333 193.95 103.483 194.775 105.495C195.962 108.469 195.532 114.402 195.532 114.402Z" fill="#F06143"/>
<path d="M187.294 115.188C188.137 121.946 186.855 126.249 185.221 130.737C182.951 136.927 182.031 137.275 179.746 151.528" stroke="#2E2C41" stroke-width="1.0012" stroke-miterlimit="10" stroke-linecap="round" stroke-linejoin="round"/>
<path d="M123.293 92.3336L121.404 100.491L110.907 102.976L115.875 90.7061L123.293 92.3336Z" fill="#FDB096"/>
<path d="M123.267 92.3547C123.267 92.3547 124.74 87.7691 124.791 85.3623C124.841 82.9556 126.098 79.9444 126.098 79.9444C126.098 79.9444 124.328 79.4187 123.194 81.2814C122.06 83.1441 122.258 84.2782 121.86 84.2564C120.445 84.1793 116.832 73.4625 115.591 73.8852C113.888 74.4648 116.073 80.5537 116.073 80.5537C116.073 80.5537 114.002 80.1886 113.898 82.0241C113.898 82.0241 111.814 82.6519 111.814 84.0647C111.814 84.0647 110.368 84.2558 110.492 86.0468C110.616 87.8379 112.349 89.3217 113.334 90.4792C114.319 91.6366 115.391 94.1886 117.085 94.7166L123.267 92.3547Z" fill="#FDB096"/>
<path d="M116.072 80.5537C116.072 80.5537 118.713 85.1035 117.964 85.6577C117.215 86.2119 116.446 86.0033 116.446 86.0033C116.446 86.0033 115.722 87.5115 114.49 87.1243C114.49 87.1243 114.303 88.6945 113.137 87.9236C111.971 87.1527 111.953 86.466 111.42 86.5185" stroke="#2E2C41" stroke-width="0.7196" stroke-miterlimit="10" stroke-linecap="round" stroke-linejoin="round"/>
<path d="M116.447 86.0039C116.447 86.0039 114.934 83.1934 113.897 82.0244" stroke="#2E2C41" stroke-width="0.7196" stroke-miterlimit="10" stroke-linecap="round" stroke-linejoin="round"/>
<path d="M114.491 87.1251C114.491 87.1251 113.376 84.9148 112.084 84.1855" stroke="#2E2C41" stroke-width="0.7196" stroke-miterlimit="10" stroke-linecap="round" stroke-linejoin="round"/>
<path d="M153.557 89.4209C153.557 89.4209 137.864 90.8065 132.113 94.9143C127.09 98.5028 121.511 102.253 121.511 102.253L121.78 98.9953C121.78 98.9953 121.545 97.995 117.032 97.2177C112.716 96.4743 110.935 96.6055 110.935 96.6055C110.935 96.6055 101.663 122.643 108.863 127.735C116.064 132.826 138.314 114.606 138.314 114.606L153.557 89.4209Z" fill="#F06143"/>
<path d="M137.366 115.148L137.095 108.915" stroke="#2E2C41" stroke-width="1.0012" stroke-miterlimit="10" stroke-linecap="round" stroke-linejoin="round"/>
<path d="M121.511 102.252C121.511 102.252 121.663 107.454 120.855 111.206C120.048 114.958 119.411 118.642 119.411 118.642" stroke="#2E2C41" stroke-width="1.0012" stroke-miterlimit="10" stroke-linecap="round" stroke-linejoin="round"/>
</g>
<defs>
<clipPath id="clip0_1130_13693">
<rect width="240" height="160" fill="white"/>
</clipPath>
</defs>
</svg>
