<svg width="36" height="36" viewBox="0 0 36 36" fill="none" xmlns="http://www.w3.org/2000/svg">
<rect width="36" height="36" rx="8" fill="#FEE1DB"/>
<g clip-path="url(#clip0_729_6151)">
<path d="M26.6901 24.2489L22.4518 20.0342V20.0371L22.0224 20.4636L21.0989 19.5371C20.8901 19.8342 20.646 20.1224 20.3783 20.3901C20.1165 20.6518 19.8313 20.893 19.5312 21.1077L20.4548 22.0312L20.0283 22.4606L24.2666 26.6754C24.9678 27.3766 26.0497 27.3128 26.6901 26.6724C27.3289 26.0336 27.3956 24.9544 26.6901 24.2489Z" fill="#F06143"/>
<path d="M20.7849 19.2224C22.6114 16.6518 22.3732 13.0577 20.0673 10.7518C17.4938 8.17827 13.3173 8.18121 10.7438 10.7518C8.16728 13.3283 8.17022 17.5018 10.7438 20.0783C13.0496 22.3812 16.6408 22.6224 19.2173 20.793C19.5143 20.5841 19.7996 20.3459 20.0673 20.0783C20.3349 19.8106 20.5761 19.5224 20.7849 19.2224ZM18.9055 18.9165C16.9732 20.8459 13.8408 20.8459 11.9085 18.9136C9.97611 16.9783 9.97611 13.8489 11.9055 11.9165C13.8379 9.98121 16.9702 9.97827 18.9055 11.9165C20.8379 13.8489 20.8379 16.9842 18.9055 18.9165Z" fill="#F06143"/>
<path d="M14.3369 11.9234C14.1126 11.9921 13.8937 12.0828 13.6869 12.1937C13.5795 12.2512 13.539 12.3847 13.5964 12.4921C13.6361 12.5665 13.7122 12.6088 13.7912 12.6088C13.8262 12.6088 13.8618 12.6004 13.8948 12.5826C14.0767 12.4855 14.2688 12.4054 14.4661 12.3451C14.5825 12.3095 14.648 12.1862 14.6123 12.0696C14.5767 11.9536 14.4546 11.8878 14.3369 11.9234Z" fill="#F06143"/>
<path d="M12.8258 12.8351C11.8024 13.8585 11.4813 15.3914 12.0072 16.7402C12.0509 16.8517 12.1764 16.9101 12.293 16.8657C12.4065 16.8212 12.4628 16.6934 12.4182 16.5799C11.9558 15.394 12.2382 14.0466 13.1377 13.147C13.2239 13.0608 13.2239 12.9212 13.1377 12.8351C13.0516 12.7489 12.912 12.7489 12.8258 12.8351Z" fill="#F06143"/>
</g>
<defs>
<clipPath id="clip0_729_6151">
<rect width="20" height="20" fill="white" transform="translate(8 8)"/>
</clipPath>
</defs>
</svg>
