<svg width="36" height="36" viewBox="0 0 36 36" fill="none" xmlns="http://www.w3.org/2000/svg">
<rect width="36" height="36" rx="8" fill="#FEE1DB"/>
<path d="M14.8 26.1571V22.0571L16.7 22.2571C17.2531 22.2263 17.7766 21.997 18.1742 21.6112C18.5717 21.2254 18.8167 20.709 18.864 20.1571V14.4571C18.8706 13.0164 18.3047 11.6321 17.2907 10.6087C16.2767 9.58535 14.8977 9.00669 13.457 9.00006C12.0163 8.99343 10.6321 9.55937 9.60867 10.5734C8.58529 11.5874 8.00663 12.9664 8 14.4071C8 17.2071 8.656 17.4611 9 18.9571C9.23248 19.8605 9.24243 20.8069 9.029 21.7151L8 26.1571" stroke="#F06143" stroke-width="2" stroke-linecap="round" stroke-linejoin="round"/>
<path d="M25.7969 23.9571C27.2027 22.5511 27.9927 20.6444 27.9933 18.6562C27.9938 16.6679 27.2049 14.7608 25.7999 13.3541" stroke="#F06143" stroke-width="2" stroke-linecap="round" stroke-linejoin="round"/>
<path d="M23.0016 21.1571C23.3287 20.83 23.5878 20.4412 23.7638 20.0134C23.9398 19.5855 24.0292 19.127 24.0269 18.6644C24.0246 18.2017 23.9305 17.7441 23.7503 17.318C23.57 16.892 23.307 16.5059 22.9766 16.1821" stroke="#F06143" stroke-width="2" stroke-linecap="round" stroke-linejoin="round"/>
</svg>
