<svg width="36" height="36" viewBox="0 0 36 36" fill="none" xmlns="http://www.w3.org/2000/svg">
<rect width="36" height="36" rx="8" fill="#FEE1DB"/>
<g clip-path="url(#clip0_741_6439)">
<path d="M18.7909 20.7955L16.4818 18.5136L16.5091 18.4864C18.0909 16.7227 19.2182 14.6954 19.8818 12.55H22.5455V10.7273H16.1818V8.90906H14.3636V10.7273H8V12.5363H18.1545C17.5409 14.2909 16.5818 15.9545 15.2727 17.4091C14.4272 16.4682 13.7272 15.4454 13.1727 14.3636H11.3545C12.0182 15.8454 12.9273 17.2454 14.0636 18.5091L9.4409 23.0772L10.7273 24.3636L15.2727 19.8182L18.1 22.6454L18.7909 20.7955Z" fill="#F06143"/>
<path d="M23.9091 16.1818H22.0909L18 27.0909H19.8182L20.8409 24.3636H25.1591L26.1818 27.0909H28L23.9091 16.1818ZM21.5227 22.5455L23 18.6045L24.4773 22.5455H21.5227Z" fill="#F06143"/>
</g>
<defs>
<clipPath id="clip0_741_6439">
<rect width="20" height="20" fill="white" transform="translate(8 8)"/>
</clipPath>
</defs>
</svg>
