<svg width="40" height="40" viewBox="0 0 40 40" fill="none" xmlns="http://www.w3.org/2000/svg">
<g id="fi_5968830">
<g clip-path="url(#clip0_1186_6804)">
<rect width="40" height="40" rx="9" fill="white"/>
<path id="Vector" d="M21.3378 19.3169L30.3392 32.1922H26.645L19.2996 21.6859V21.6853L18.2212 20.143L9.64062 7.86914H13.3348L20.2594 17.7746L21.3378 19.3169Z" fill="#2B2B2B"/>
<path id="Vector_2" d="M35.6779 0H4.32209C1.93513 0 0 1.93513 0 4.32209V35.6779C0 38.0649 1.93513 40 4.32209 40H35.6779C38.0649 40 40 38.0649 40 35.6779V4.32209C40 1.93513 38.0649 0 35.6779 0ZM25.5133 33.9208L18.0802 23.1029L8.77392 33.9208H6.3687L17.0122 21.5491L6.3687 6.05868H14.4867L21.5253 16.3025L30.3377 6.05868H32.743L22.5936 17.8566H22.593L33.6313 33.9208H25.5133Z" fill="#2B2B2B"/>
</g>
<rect x="0.5" y="0.5" width="39" height="39" rx="8.5" stroke="#2B2B2B"/>
</g>
<defs>
<clipPath id="clip0_1186_6804">
<rect width="40" height="40" rx="9" fill="white"/>
</clipPath>
</defs>
</svg>
