<svg width="40" height="40" viewBox="0 0 40 40" fill="none" xmlns="http://www.w3.org/2000/svg">
<g id="fi_733547">
<g clip-path="url(#clip0_1186_6807)">
<path id="Vector" d="M35 0H5C2.2425 0 0 2.2425 0 5V35C0 37.7575 2.2425 40 5 40H35C37.7575 40 40 37.7575 40 35V5C40 2.2425 37.7575 0 35 0Z" fill="#FF0000"/>
<g id="Social Media Icon">
<path id="Vector_2" d="M31.5055 13.73C31.2288 12.7018 30.4182 11.8914 29.3903 11.6146C27.5122 11.1006 19.9998 11.1006 19.9998 11.1006C19.9998 11.1006 12.4875 11.1006 10.6094 11.595C9.60125 11.8716 8.77087 12.702 8.4942 13.73C8 15.6079 8 19.5025 8 19.5025C8 19.5025 8 23.4168 8.4942 25.2751C8.77105 26.303 9.58148 27.1136 10.6096 27.3905C12.5073 27.9045 20 27.9045 20 27.9045C20 27.9045 27.5122 27.9045 29.3903 27.4101C30.4184 27.1334 31.2288 26.3228 31.5057 25.2949C31.9999 23.4168 31.9999 19.5223 31.9999 19.5223C31.9999 19.5223 32.0197 15.6079 31.5055 13.73Z" fill="white"/>
<path id="Vector_3" d="M17.6074 23.1008L23.8544 19.5028L17.6074 15.9048V23.1008Z" fill="#FF0000"/>
</g>
</g>
</g>
<defs>
<clipPath id="clip0_1186_6807">
<rect width="40" height="40" rx="9" fill="white"/>
</clipPath>
</defs>
</svg>
