<svg width="424" height="424" viewBox="0 0 424 424" fill="none" xmlns="http://www.w3.org/2000/svg">
<path fill-rule="evenodd" clip-rule="evenodd" d="M406.228 110.078C416.043 110.078 424 118.035 424 127.85C424 137.666 416.043 145.623 406.228 145.623H304.671C314.486 145.623 322.443 153.58 322.443 163.395C322.443 173.211 314.486 181.168 304.671 181.168H360.527C370.342 181.168 378.299 189.125 378.299 198.94C378.299 208.756 370.342 216.713 360.527 216.713H334.696C322.32 216.713 312.287 224.67 312.287 234.485C312.287 241.029 317.365 246.952 327.521 252.257C337.336 252.257 345.293 260.214 345.293 270.03C345.293 279.845 337.336 287.802 327.521 287.802H116.79C106.975 287.802 99.018 279.845 99.018 270.03C99.018 260.214 106.975 252.257 116.79 252.257H17.7725C7.95698 252.257 0 244.3 0 234.485C0 224.67 7.95698 216.713 17.7725 216.713H119.329C129.145 216.713 137.102 208.756 137.102 198.94C137.102 189.125 129.145 181.168 119.329 181.168H55.8563C46.0408 181.168 38.0838 173.211 38.0838 163.395C38.0838 153.58 46.0408 145.623 55.8563 145.623H157.413C147.598 145.623 139.641 137.666 139.641 127.85C139.641 118.035 147.598 110.078 157.413 110.078H406.228ZM406.228 181.168C416.043 181.168 424 189.125 424 198.94C424 208.756 416.043 216.713 406.228 216.713C396.412 216.713 388.455 208.756 388.455 198.94C388.455 189.125 396.412 181.168 406.228 181.168Z" fill="#F5F8F7"/>
<path d="M186.609 275.108C233.582 275.108 271.662 237.028 271.662 190.054C271.662 143.08 233.582 105 186.609 105C139.635 105 101.555 143.08 101.555 190.054C101.555 237.028 139.635 275.108 186.609 275.108Z" fill="#DEE9E7" stroke="#527A75" stroke-width="5"/>
<path fill-rule="evenodd" clip-rule="evenodd" d="M172.981 256.051C177.447 256.875 181.989 257.302 186.61 257.335C223.768 257.335 253.891 227.212 253.891 190.054C253.891 152.896 223.768 122.772 186.61 122.772C177.064 122.772 167.983 124.76 159.758 128.344C145.464 134.573 133.753 145.623 126.681 159.44C121.98 168.623 119.328 179.029 119.328 190.054C119.328 200.057 121.512 209.55 125.427 218.084C128.222 224.176 131.901 229.779 136.3 234.728" fill="white"/>
<path d="M172.981 256.051C177.447 256.875 181.989 257.302 186.61 257.335C223.768 257.335 253.891 227.212 253.891 190.054C253.891 152.896 223.768 122.772 186.61 122.772C177.064 122.772 167.983 124.76 159.758 128.344C145.464 134.573 133.753 145.623 126.681 159.44C121.98 168.623 119.328 179.029 119.328 190.054C119.328 200.057 121.512 209.55 125.427 218.084C128.222 224.176 131.901 229.779 136.3 234.728" stroke="#527A75" stroke-width="5" stroke-linecap="round"/>
<path d="M144.203 242.291C149.657 246.724 155.819 250.32 162.492 252.883" stroke="#527A75" stroke-width="5" stroke-linecap="round"/>
<path d="M256.43 257.335L271.663 272.569" stroke="#527A75" stroke-width="5"/>
<path fill-rule="evenodd" clip-rule="evenodd" d="M269.202 270.107C264.396 274.912 264.396 282.703 269.202 287.509L297.346 315.653C302.152 320.459 309.943 320.459 314.749 315.653C319.554 310.848 319.554 303.057 314.749 298.251L286.604 270.107C281.799 265.301 274.007 265.301 269.202 270.107Z" fill="#B3CDC7" stroke="#527A75" stroke-width="5"/>
<path d="M281.82 275.108L309.748 303.036" stroke="white" stroke-width="5" stroke-linecap="round"/>
<path fill-rule="evenodd" clip-rule="evenodd" d="M170.108 160.856C170.108 190.303 193.979 214.174 223.426 214.174C229.211 214.174 234.78 213.252 239.995 211.548C231.482 232.675 210.788 247.587 186.611 247.587C154.837 247.587 129.078 221.829 129.078 190.054C129.078 161.261 150.227 137.409 177.839 133.185C172.934 141.255 170.108 150.725 170.108 160.856Z" fill="#B3CDC7"/>
<path d="M187.88 143.084C184.647 143.084 181.488 143.402 178.434 144.008M169.205 146.831C151.838 154.131 139.641 171.303 139.641 191.323" stroke="#93B5AF" stroke-width="5" stroke-linecap="round"/>
<path d="M322.888 190.758H302.13M338.944 171.012H295.336M356.717 171.012H351.078" stroke="#93B5AF" stroke-width="5" stroke-linecap="round" stroke-linejoin="round"/>
<path d="M94.3902 246.615H73.632M82.5182 224.329H38.9097M24.123 224.329H13.4062" stroke="#93B5AF" stroke-width="5" stroke-linecap="round" stroke-linejoin="round"/>
</svg>
