<svg width="297" height="191" viewBox="0 0 297 191" fill="none" xmlns="http://www.w3.org/2000/svg">
<path d="M245.113 128.123L244.578 128.182L251.185 188.549L251.72 188.49L245.113 128.123Z" fill="#292A2E"/>
<path d="M262.212 154.493L258.961 186.641L259.496 186.695L262.747 154.547L262.212 154.493Z" fill="#292A2E"/>
<path d="M267.801 182.742H243.688V190.567H267.801V182.742Z" fill="#292A2E"/>
<path opacity="0.2" d="M267.801 182.742H243.688V190.567H267.801V182.742Z" fill="white"/>
<path d="M282.33 168.32C286.898 162.249 284.72 152.903 277.465 147.445C270.211 141.987 260.627 142.485 256.06 148.556C251.492 154.627 253.67 163.973 260.924 169.431C268.179 174.889 277.763 174.392 282.33 168.32Z" fill="#F06143"/>
<path opacity="0.2" d="M282.33 168.32C286.898 162.249 284.72 152.903 277.465 147.445C270.211 141.987 260.627 142.485 256.06 148.556C251.492 154.627 253.67 163.973 260.924 169.431C268.179 174.889 277.763 174.392 282.33 168.32Z" fill="white"/>
<path opacity="0.5" d="M282.334 168.334C282.023 168.748 281.689 169.135 281.332 169.494C276.304 172.707 268.882 172.201 262.994 167.77C255.741 162.313 253.564 152.967 258.132 146.896C258.443 146.482 258.777 146.097 259.131 145.735C264.162 142.52 271.582 143.028 277.472 147.457C284.725 152.916 286.903 162.262 282.334 168.334Z" fill="white"/>
<path d="M248.677 145.312C255.863 139.765 257.817 130.252 253.04 124.063C248.264 117.875 238.566 117.355 231.379 122.902C224.193 128.448 222.239 137.962 227.016 144.15C231.793 150.339 241.49 150.859 248.677 145.312Z" fill="#F06143"/>
<path opacity="0.2" d="M246.405 143.707C240.84 148.006 233.767 148.661 228.64 145.863C228.054 145.347 227.512 144.772 227.021 144.136C222.243 137.95 224.196 128.435 231.382 122.889C236.948 118.592 244.021 117.935 249.145 120.731C249.733 121.246 250.275 121.824 250.766 122.46C255.544 128.647 253.591 138.162 246.405 143.707H246.405Z" fill="white"/>
<path d="M76.6741 72.1997C91.1297 72.1997 102.848 60.4811 102.848 46.0255C102.848 31.57 91.1297 19.8514 76.6741 19.8514C62.2186 19.8514 50.5 31.57 50.5 46.0255C50.5 60.4811 62.2186 72.1997 76.6741 72.1997Z" fill="#F4F4F4"/>
<g opacity="0.05">
<path d="M76.6715 66.7752C88.1312 66.7752 97.4211 57.4852 97.4211 46.0255C97.4211 34.5659 88.1312 25.2759 76.6715 25.2759C65.2118 25.2759 55.9219 34.5659 55.9219 46.0255C55.9219 57.4852 65.2118 66.7752 76.6715 66.7752Z" fill="#292A2E"/>
</g>
<path d="M69.8829 53.4368L71.8186 50.4356C73.3529 51.6112 74.6948 52.2107 76.1217 52.2107C77.8324 52.2107 78.5847 51.5011 78.5847 50.1275C78.5847 47.0224 70.6178 47.0783 70.6178 41.632C70.6178 38.1311 73.0429 35.901 76.8673 35.901C79.449 35.901 81.2032 36.9663 82.6128 38.4614L80.3929 41.0044C79.296 40.0067 78.3658 39.4812 77.1056 39.4812C75.6537 39.4812 74.8658 40.0666 74.8658 41.4226C74.8658 44.3006 82.8328 44.0492 82.8328 49.8185C82.8328 53.2842 80.5392 55.7911 76.1215 55.7911C74.2151 55.7911 71.5872 54.9818 69.8828 53.4372V53.4368H69.8829ZM75.1911 32.9428H78.1353V37.2894H75.1911V32.9428ZM75.1911 53.9791H78.1353V58.7484H75.1911V53.9791Z" fill="white"/>
<path d="M277.914 55.8472C288.135 45.6257 288.135 29.0533 277.914 18.8318C267.692 8.61022 251.12 8.61022 240.898 18.8318C230.677 29.0533 230.677 45.6257 240.898 55.8472C251.12 66.0687 267.692 66.0687 277.914 55.8472Z" fill="#F4F4F4"/>
<g opacity="0.05">
<path d="M274.016 52.672C282.119 44.5689 282.119 31.4311 274.016 23.328C265.913 15.2248 252.775 15.2248 244.672 23.328C236.569 31.4311 236.569 44.5689 244.672 52.672C252.775 60.7752 265.913 60.7752 274.016 52.672Z" fill="#292A2E"/>
</g>
<path d="M257.339 39.632C256.996 40.1739 256.981 40.9024 257.291 41.4625C257.443 41.7677 257.696 41.9993 257.966 42.1984C257.938 43.3159 257.775 44.4331 257.745 45.5502C258.59 45.5584 259.439 45.5683 260.283 45.5347C260.224 44.4216 260.089 43.31 260.047 42.1966C260.212 42.0292 260.416 41.8985 260.55 41.6993C261.063 41.0709 261.04 40.099 260.541 39.4702C260.144 38.9726 259.493 38.6874 258.858 38.7413C258.249 38.7768 257.664 39.1152 257.339 39.632ZM256.389 30.3708C255.535 31.0956 255.033 32.202 255.041 33.3214C255.053 34.3499 255.016 35.3828 255.06 36.4091C257.701 36.4106 260.342 36.4117 262.983 36.4087C262.995 35.3798 262.987 34.3499 262.99 33.3207C263.004 32.4961 262.73 31.6741 262.239 31.0132C261.526 30.0468 260.356 29.4321 259.155 29.4058C258.156 29.3674 257.145 29.7158 256.389 30.3708ZM255.466 28.302C257.154 27.1449 259.418 26.8937 261.321 27.6433C262.006 27.8989 262.634 28.2942 263.187 28.7704C264.486 29.8949 265.267 31.6002 265.241 33.3207C265.249 34.3433 265.225 35.3673 265.251 36.3895C265.525 36.4261 265.807 36.3655 266.076 36.4472C266.594 36.5724 267.002 37.0674 266.999 37.6053C266.999 40.598 266.997 43.5908 267 46.5835C267.009 47.0723 266.674 47.5318 266.221 47.7018C265.972 47.8037 265.698 47.7805 265.435 47.7809C261.001 47.7764 256.568 47.7794 252.135 47.7794C251.543 47.7727 251.015 47.2511 251.002 46.6585C251.002 43.7644 251.002 40.87 251.002 37.9755C251.004 37.7486 250.982 37.5163 251.046 37.2954C251.162 36.8687 251.535 36.5302 251.964 36.4361C252.227 36.3681 252.5 36.4261 252.765 36.3899C252.796 35.2731 252.761 34.1541 252.782 33.0366C252.855 31.148 253.888 29.3382 255.466 28.302Z" fill="#B3CDC7"/>
<path d="M55.5254 24.6347H237.066C241.524 24.6347 245.138 28.2487 245.138 32.707V165.622C245.138 170.081 241.524 173.695 237.066 173.695H55.5254C51.0672 173.695 47.4531 170.081 47.4531 165.622V32.7069C47.4531 28.2487 51.0672 24.6347 55.5254 24.6347Z" fill="white"/>
<path d="M237.062 173.963H55.521C50.9217 173.963 47.1797 170.221 47.1797 165.622V32.7069C47.1797 28.1076 50.9217 24.3656 55.521 24.3656H237.062C241.661 24.3656 245.403 28.1076 245.403 32.7069V165.622C245.403 170.222 241.661 173.964 237.062 173.964V173.963ZM55.521 24.9038C51.2182 24.9038 47.7179 28.4042 47.7179 32.7069V165.622C47.7179 169.925 51.2182 173.425 55.521 173.425H237.062C241.364 173.425 244.865 169.925 244.865 165.622V32.7069C244.865 28.4042 241.364 24.9038 237.062 24.9038H55.521Z" fill="#292A2E"/>
<path d="M82.7383 97.4882C82.5317 97.4882 82.3253 97.4094 82.1676 97.2517L78.4006 93.4846C78.0852 93.1696 78.0852 92.6583 78.4006 92.3432C78.7159 92.0278 79.2267 92.0278 79.542 92.3432L83.3091 96.1102C83.6244 96.4253 83.6244 96.9365 83.3091 97.2517C83.1514 97.4094 82.9447 97.4882 82.7383 97.4882Z" fill="#F06143"/>
<path d="M78.9713 97.4882C78.7647 97.4882 78.5583 97.4094 78.4006 97.2517C78.0852 96.9366 78.0852 96.4254 78.4006 96.1102L82.1676 92.3432C82.483 92.0278 82.9937 92.0278 83.3091 92.3432C83.6244 92.6582 83.6244 93.1695 83.3091 93.4846L79.542 97.2517C79.3842 97.4094 79.1775 97.4882 78.9713 97.4882Z" fill="#F06143"/>
<path d="M190.591 133.484L189.516 135.951L196.133 138.836L197.208 136.369L190.591 133.484Z" fill="#F06143"/>
<path d="M192.693 67.3722L186.469 71.0293L187.832 73.3492L194.056 69.6921L192.693 67.3722Z" fill="#F06143"/>
<path d="M88.9742 73.6291L88.1406 76.1874L95.0047 78.4239L95.8383 75.8656L88.9742 73.6291Z" fill="#F06143"/>
<path d="M97.07 116.521L91.1562 120.66L92.6991 122.864L98.6129 118.725L97.07 116.521Z" fill="#F06143"/>
<path d="M205.45 107.052L205.203 109.731L212.235 110.38L212.482 107.7L205.45 107.052Z" fill="#F06143"/>
<path d="M212.605 87.783C212.399 87.783 212.193 87.7041 212.035 87.5465L208.268 83.7794C207.952 83.4644 207.952 82.9531 208.268 82.638C208.583 82.3226 209.094 82.3226 209.409 82.638L213.176 86.405C213.492 86.7201 213.492 87.2313 213.176 87.5465C213.018 87.7041 212.812 87.783 212.605 87.783Z" fill="#F06143"/>
<path d="M208.838 87.783C208.632 87.783 208.425 87.7041 208.268 87.5465C207.952 87.2314 207.952 86.7202 208.268 86.405L212.035 82.638C212.35 82.3226 212.861 82.3226 213.176 82.638C213.492 82.953 213.492 83.4643 213.176 83.7794L209.409 87.5465C209.251 87.7041 209.045 87.783 208.838 87.783Z" fill="#F06143"/>
<path opacity="0.4" d="M146.292 145.994C169.999 145.994 189.217 126.775 189.217 103.069C189.217 79.3617 169.999 60.1435 146.292 60.1435C122.585 60.1435 103.367 79.3617 103.367 103.069C103.367 126.775 122.585 145.994 146.292 145.994Z" fill="#F06143"/>
<path d="M146.293 133.088C162.873 133.088 176.313 119.648 176.313 103.069C176.313 86.4891 162.873 73.0489 146.293 73.0489C129.714 73.0489 116.273 86.4891 116.273 103.069C116.273 119.648 129.714 133.088 146.293 133.088Z" fill="#F06143"/>
<path d="M140.156 115.947C139.696 115.947 139.237 115.767 138.895 115.41L129.339 105.466C128.67 104.769 128.692 103.662 129.389 102.993C130.086 102.324 131.192 102.346 131.861 103.042L140.246 111.768L162.165 92.1041C162.884 91.4591 163.99 91.5188 164.635 92.2381C165.28 92.957 165.221 94.063 164.501 94.7079L141.323 115.5C140.99 115.8 140.572 115.948 140.156 115.948L140.156 115.947Z" fill="white"/>
<path d="M245.137 32.7058V40.8286H47.4531V32.7058C47.4531 28.2475 51.067 24.6335 55.5254 24.6335H237.065C241.523 24.6335 245.137 28.2474 245.137 32.7058H245.137Z" fill="#292A2E"/>
<path d="M10.503 174.668C7.417 174.668 4.47518 173.251 2.55138 170.788C0.401531 168.034 -0.171409 164.365 1.03733 161.087C1.60832 159.539 16.2466 121.751 18.7948 115.183L36.411 125.433C34.9782 129.126 29.7869 143.124 25.6163 154.399L32.5449 153.646L34.7258 172.094L11.5947 174.609C11.2298 174.648 10.8652 174.668 10.5028 174.668H10.503Z" fill="#527A75"/>
<path d="M22.5924 175.252L19.5156 190.567H79.2766L75.8343 174.961L22.5924 175.252Z" fill="#262626"/>
<path d="M68.1211 107.325C68.0592 107.317 66.364 113.697 53.1337 112.704C43.9744 112.018 41.7411 105.783 41.5312 105.783C42.5188 105.574 44.1224 105.356 44.561 105.121C46.0032 104.347 47.0539 103.403 47.5827 101.379C47.9962 99.7955 48.2069 93.7004 48.2069 90.6426L62.3011 93.8096C62.1046 97.2591 60.7297 105.256 65.5487 106.671C66.3505 106.905 67.2143 107.121 68.1211 107.325Z" fill="#FF9E85"/>
<path d="M61.8156 100.591C56.2592 101.03 49.1218 98.684 47.7662 91.2711L46.543 84.5822C45.1871 77.1692 47.9818 70.4478 54.9615 69.1712C61.9413 67.8948 68.2572 72.9502 69.6127 80.3631L70.1544 83.3242C70.6745 86.1686 71.729 99.8092 61.8158 100.591H61.8156Z" fill="#FF9E85"/>
<path d="M35.5136 106.81C30.5206 107.18 25.4295 107.721 21.7556 111.122C17.3309 115.218 16.5293 120.255 19.3519 134.116C21.7806 146.043 20.8173 151.255 22.4419 173.263C22.4898 173.911 22.5923 175.252 22.5923 175.252L76.004 175.163C76.004 175.163 81.0081 145.964 83.7719 132.497C85.873 122.258 91.392 109.829 68.1215 107.324C68.0596 107.318 49.3959 105.78 35.5132 106.81L35.5136 106.81Z" fill="#527A75"/>
<path d="M22.5976 175.387C22.5255 175.387 22.4661 175.33 22.463 175.257L20.7892 131.809C20.7865 131.735 20.8443 131.672 20.9183 131.669C21.0004 131.664 21.0553 131.724 21.0583 131.798L22.7322 175.247C22.7349 175.321 22.677 175.384 22.603 175.387C22.6012 175.387 22.5992 175.387 22.5976 175.387V175.387Z" fill="#0C0C0C"/>
<path d="M108.296 122.323L112.049 113.905C112.394 113.131 113.332 112.805 114.091 113.226C114.764 113.599 114.995 114.46 114.682 115.162L113.877 116.967L119.013 112.452C119.575 111.941 120.592 111.672 121.125 112.341C121.591 112.853 121.623 113.606 121.245 114.152C121.25 114.157 121.257 114.159 121.262 114.166C121.266 114.17 121.267 114.176 121.27 114.18L122.137 113.391C122.806 112.782 123.886 112.911 124.378 113.731C124.738 114.332 124.578 115.112 124.061 115.584L123.692 115.92C123.696 115.935 123.699 115.951 123.698 115.967C124.303 115.627 125.092 115.756 125.551 116.331C126.038 116.941 125.916 117.839 125.339 118.364L124.423 119.198C124.465 119.194 124.508 119.206 124.539 119.24C124.557 119.261 124.565 119.285 124.568 119.309C125.17 119.163 125.841 119.405 126.19 120.018C126.531 120.615 126.363 121.376 125.855 121.839L118.122 128.878C115.91 130.893 112.696 131.363 109.999 130.068C107.635 128.932 106.603 126.122 107.671 123.726L108.296 122.324L108.296 122.323Z" fill="#FF9E85"/>
<g opacity="0.2">
<path d="M116.184 118.645C116.234 118.699 116.317 118.703 116.372 118.655L121.251 114.355C121.306 114.306 121.312 114.221 121.263 114.165C121.221 114.109 121.128 114.104 121.073 114.153L116.194 118.453C116.138 118.502 116.133 118.587 116.182 118.643L116.184 118.645Z" fill="#0C0C0C"/>
</g>
<g opacity="0.2">
<path d="M118.02 120.849C118.07 120.903 118.153 120.907 118.208 120.859L123.652 116.06C123.708 116.011 123.714 115.926 123.664 115.87C123.619 115.82 123.53 115.809 123.474 115.859L118.03 120.657C117.974 120.706 117.969 120.791 118.018 120.847L118.02 120.849V120.849Z" fill="#0C0C0C"/>
</g>
<g opacity="0.2">
<path d="M119.997 123.247C120.046 123.301 120.13 123.305 120.185 123.257L124.527 119.43C124.583 119.381 124.589 119.296 124.539 119.24C124.489 119.185 124.405 119.179 124.349 119.228L120.007 123.055C119.951 123.104 119.945 123.189 119.995 123.245L119.997 123.248V123.247Z" fill="#0C0C0C"/>
</g>
<path d="M66.9648 93.7855C65.9674 88.7743 65.5102 85.431 65.5632 81.9038C66.9681 79.4396 66.5986 76.6117 66.2793 75.3895C67.6561 76.1406 68.2319 76.2226 69.5278 76.2226C69.5278 76.2226 67.2046 66.899 59.3084 64.3902C57.8564 63.8251 54.1492 63.1112 49.2268 63.7863C45.04 64.3606 34.7195 67.491 33.2452 79.11H33.2447C33.2447 79.11 33.2446 79.1133 33.2443 79.1167C33.1956 79.5021 32.2046 90.2074 30.2291 95.3437C27.5734 102.248 23.8448 104.394 23.9393 112.36C24.0609 122.608 42.8997 123.972 54.2627 123.205C65.6258 122.439 71.9686 118.702 72.0509 111.317C72.1429 103.043 68.9609 103.812 66.9654 93.7857L66.9648 93.7855Z" fill="#0A0A0A"/>
<path d="M66.9701 89.585C64.8489 89.973 62.7144 88.0181 62.3267 85.8971C61.9387 83.776 63.4444 82.2917 65.5655 81.9038L66.9704 89.5851H66.9701V89.585Z" fill="#FF9E85"/>
<path d="M89.7863 173.141C89.3706 173.141 88.9521 173.115 88.5329 173.062C84.6443 172.576 81.3887 169.883 80.1833 166.154L66.1641 122.797L85.3657 116.589L92.7394 139.394L105.481 119.131L122.565 129.874L98.3259 168.421C96.4646 171.381 93.2244 173.141 89.7863 173.141Z" fill="#527A75"/>
<path d="M78.4708 161.17C78.4627 161.17 78.4544 161.169 78.4461 161.168C78.3732 161.154 78.3247 161.084 78.3382 161.011L83.1038 135.142C83.1175 135.068 83.1866 135.019 83.2606 135.034C83.3335 135.047 83.382 135.117 83.3685 135.191L78.603 161.06C78.5908 161.125 78.5342 161.17 78.4708 161.17Z" fill="#0C0C0C"/>
<path d="M94.4484 145.5C94.3884 145.5 94.3338 145.46 94.3181 145.399L92.7309 139.284C92.7123 139.213 92.7556 139.139 92.8272 139.121C92.9001 139.102 92.9728 139.145 92.9914 139.217L94.5786 145.332C94.5972 145.404 94.5539 145.477 94.4823 145.496C94.471 145.499 94.4594 145.5 94.4484 145.5V145.5Z" fill="#0C0C0C"/>
<path d="M6.54257 190.836H275.519C275.668 190.836 275.788 190.716 275.788 190.567C275.788 190.419 275.668 190.298 275.519 190.298H6.54257C6.39407 190.298 6.27344 190.419 6.27344 190.567C6.27344 190.716 6.39407 190.836 6.54257 190.836Z" fill="#292A2E"/>
</svg>
